<svg width="512" height="512" viewBox="0 0 512 512" fill="none" xmlns="http://www.w3.org/2000/svg">
<g clip-path="url(#clip0)">
<path d="M191.994 245.34C133.179 245.34 85.3294 197.494 85.3294 138.679C85.3294 79.8649 133.179 32.0148 191.994 32.0148C250.809 32.0148 298.659 79.8649 298.659 138.679C298.659 197.494 250.809 245.34 191.994 245.34V245.34ZM191.994 64.0138C150.823 64.0138 117.328 97.505 117.328 138.679C117.328 179.85 150.823 213.341 191.994 213.341C233.165 213.341 266.66 179.85 266.66 138.679C266.66 97.505 233.165 64.0138 191.994 64.0138V64.0138Z" fill="white"/>
<path d="M367.989 480.001H15.9995C7.16774 480.001 0 472.833 0 464.001V389.336C0 333.466 45.4595 288.007 101.329 288.007H282.659C338.528 288.007 383.988 333.466 383.988 389.336V464.001C383.988 472.833 376.82 480.001 367.989 480.001V480.001ZM31.999 448.002H351.989V389.336C351.989 351.11 320.885 320.006 282.659 320.006H101.329C63.1035 320.006 31.999 351.11 31.999 389.336V448.002Z" fill="white"/>
</g>
<defs>
<clipPath id="clip0">
<rect width="512" height="512" fill="white"/>
</clipPath>
</defs>
</svg>
