<svg width="512" height="512" viewBox="0 0 512 512" fill="none" xmlns="http://www.w3.org/2000/svg">
<g clip-path="url(#clip0)">
<path d="M502.691 237.592H369.557C365.284 237.592 361.586 234.651 360.595 230.494C351.255 191.345 320.31 160.497 281.108 151.296C276.935 150.316 273.976 146.612 273.976 142.326V9.24199C273.976 3.74599 278.751 -0.506011 284.216 0.071989C342.369 6.23499 396.256 31.856 438.197 73.786C480.019 115.619 505.623 169.352 511.86 227.339C512.447 232.809 508.192 237.592 502.691 237.592Z" fill="#FF7258"/>
<path d="M273.976 142.327V114.929C338.07 122.848 388.905 173.558 397.021 237.594H369.558C365.285 237.594 361.587 234.653 360.596 230.496C351.256 191.347 320.311 160.499 281.109 151.298C276.935 150.318 273.976 146.613 273.976 142.327Z" fill="#F95D48"/>
<path d="M511.949 282.405C506.821 331.531 487.806 377.626 456.814 416.053C453.36 420.334 446.97 420.71 443.081 416.82L368.546 342.285L348.934 322.673C345.899 319.638 345.385 314.926 347.64 311.274C353.644 301.554 358.131 290.804 360.774 279.353C361.742 275.159 365.452 272.176 369.756 272.176H502.78C508.271 272.175 512.52 276.943 511.949 282.405Z" fill="#3CB371"/>
<path d="M397.192 272.175C394.137 298.4 383.923 322.435 368.546 342.285L348.934 322.673C345.899 319.638 345.385 314.926 347.64 311.274C353.644 301.554 358.131 290.804 360.774 279.353C361.742 275.159 365.452 272.176 369.756 272.176H397.192V272.175Z" fill="#2E8B57"/>
<path d="M418.671 441.32C422.555 445.204 422.188 451.581 417.921 455.038C372.402 491.92 316.091 511.981 256.684 511.981C188.13 511.981 123.669 485.272 75.183 436.799C26.971 388.588 0.302007 324.58 0.00200714 256.46C-0.298993 188.049 26.809 122.16 75.184 73.786C117.118 31.852 171.012 6.23101 229.173 0.0720057C234.63 -0.504994 239.392 3.75801 239.392 9.24501V142.327C239.392 146.621 236.421 150.321 232.24 151.303C185.076 162.383 149.857 204.795 149.857 255.299C149.857 314.193 197.777 362.124 256.682 362.124C277.393 362.124 296.74 356.193 313.129 345.951C316.784 343.667 321.521 344.173 324.568 347.22L418.671 441.32Z" fill="#00ABE0"/>
<path d="M324.571 347.22L344.224 366.873C320.093 385.933 289.592 397.321 256.439 397.328C177.922 397.345 114.875 334.488 114.667 255.972C114.473 183.279 169.009 123.277 239.395 114.859V142.326C239.395 146.62 236.424 150.32 232.244 151.302C185.08 162.382 149.861 204.794 149.861 255.298C149.861 314.192 197.781 362.123 256.686 362.123C277.397 362.123 296.744 356.192 313.133 345.95C316.787 343.667 321.523 344.173 324.571 347.22Z" fill="#099DD1"/>
</g>
<defs>
<clipPath id="clip0">
<rect width="512.001" height="512.001" fill="white"/>
</clipPath>
</defs>
</svg>
