<svg width="512" height="512" viewBox="0 0 512 512" fill="none" xmlns="http://www.w3.org/2000/svg">
<g clip-path="url(#clip0)">
<path d="M515.691 237.573H382.557C378.284 237.573 374.586 234.632 373.595 230.475C364.255 191.326 333.31 160.478 294.108 151.277C289.935 150.297 286.977 146.593 286.977 142.307V9.22267C286.977 3.72667 291.751 -0.525329 297.216 0.0526714C355.369 6.21567 409.256 31.8367 451.197 73.7667C493.019 115.6 518.623 169.333 524.86 227.32C525.447 232.79 521.192 237.573 515.691 237.573Z" fill="#FF7258"/>
<path d="M286.977 142.308V114.91C351.071 122.829 401.905 173.539 410.021 237.575H382.559C378.286 237.575 374.587 234.634 373.596 230.477C364.256 191.328 333.311 160.48 294.109 151.279C289.935 150.299 286.977 146.594 286.977 142.308Z" fill="#F95D48"/>
<path d="M431.671 441.301C435.555 445.185 435.188 451.562 430.921 455.019C385.402 491.901 329.091 511.962 269.684 511.962C201.13 511.962 136.669 485.253 88.1835 436.78C39.9715 388.569 13.3025 324.561 13.0025 256.441C12.7015 188.03 39.8095 122.141 88.1845 73.7667C130.118 31.8327 184.012 6.21169 242.173 0.052688C247.63 -0.524312 252.392 3.73869 252.392 9.22569V142.308C252.392 146.602 249.421 150.302 245.24 151.284C198.076 162.364 162.857 204.776 162.857 255.28C162.857 314.174 210.777 362.105 269.682 362.105C290.393 362.105 309.74 356.174 326.129 345.932C329.784 343.648 334.521 344.154 337.568 347.201L431.671 441.301Z" fill="#00ABE0"/>
<path d="M337.571 347.201L357.224 366.854C333.093 385.914 302.592 397.302 269.439 397.309C190.922 397.326 127.875 334.469 127.667 255.953C127.473 183.26 182.009 123.258 252.395 114.84V142.307C252.395 146.601 249.424 150.301 245.244 151.283C198.08 162.363 162.861 204.775 162.861 255.279C162.861 314.173 210.781 362.104 269.686 362.104C290.397 362.104 309.744 356.173 326.133 345.931C329.787 343.648 334.523 344.154 337.571 347.201Z" fill="#099DD1"/>
<path d="M353 269.6L335.8 339.6H244.6C243.4 299.2 243.4 258.8 243.4 221.6V194.8C243.4 157.2 243.4 117.2 244.6 77.6L284.6 73.6V59.2H149V73.6L187 77.2C187.8 117.6 187.8 158 187.8 198V224.8C187.8 259.2 187.8 298.8 187 338.4L149.4 342L149 356H373.8L374.6 269.6H353Z" fill="white"/>
<path d="M186.136 393.072C181.4 391.024 178.776 388.528 178.776 384.048C178.776 378.992 182.68 376.176 188.312 376.176C190.168 376.176 191.64 376.432 193.112 377.136L195.8 386.992H199.384L199.832 376.944C196.504 374.768 192.408 373.36 187.416 373.36C177.752 373.36 170.84 378.16 170.84 386.608C170.84 393.968 175.448 398.128 183.512 401.648L186.456 402.928C192.088 405.296 194.264 407.536 194.264 412.016C194.264 417.328 190.296 420.4 183.768 420.4C181.08 420.4 179.032 420.08 176.856 419.12L174.168 408.816H170.584L170.2 419.44C173.784 421.744 179.288 423.216 184.6 423.216C195.672 423.216 202.264 417.648 202.264 409.264C202.264 402.352 198.808 398.512 189.336 394.416L186.136 393.072ZM240.61 377.2L243.234 387.76H246.818L246.434 374.512H205.794L205.346 387.76H208.93L211.618 377.2H221.538C221.602 383.664 221.602 390.256 221.602 396.72V399.856C221.602 406.384 221.602 412.848 221.538 419.184L214.69 419.76V422H237.538V419.76L230.69 419.184C230.562 412.72 230.562 406.256 230.562 399.856V396.72C230.562 390.128 230.562 383.6 230.69 377.2H240.61ZM257.265 404.272L264.049 382.32L271.089 404.272H257.265ZM285.041 419.184L269.745 374.32H264.177L249.585 418.992L244.081 419.76V422H259.057V419.76L252.785 418.992L256.561 406.64H271.857L275.889 419.056L269.681 419.76V422H290.353V419.76L285.041 419.184ZM322.985 377.2L325.609 387.76H329.193L328.809 374.512H288.169L287.721 387.76H291.305L293.993 377.2H303.913C303.977 383.664 303.977 390.256 303.977 396.72V399.856C303.977 406.384 303.977 412.848 303.913 419.184L297.065 419.76V422H319.913V419.76L313.065 419.184C312.937 412.72 312.937 406.256 312.937 399.856V396.72C312.937 390.128 312.937 383.6 313.065 377.2H322.985ZM349.574 393.072C344.838 391.024 342.214 388.528 342.214 384.048C342.214 378.992 346.118 376.176 351.75 376.176C353.606 376.176 355.078 376.432 356.55 377.136L359.238 386.992H362.822L363.27 376.944C359.942 374.768 355.846 373.36 350.854 373.36C341.19 373.36 334.278 378.16 334.278 386.608C334.278 393.968 338.885 398.128 346.95 401.648L349.894 402.928C355.526 405.296 357.702 407.536 357.702 412.016C357.702 417.328 353.734 420.4 347.206 420.4C344.518 420.4 342.47 420.08 340.294 419.12L337.606 408.816H334.022L333.638 419.44C337.222 421.744 342.726 423.216 348.038 423.216C359.11 423.216 365.701 417.648 365.701 409.264C365.701 402.352 362.246 398.512 352.774 394.416L349.574 393.072Z" fill="white"/>
</g>
<defs>
<clipPath id="clip0">
<rect width="512.001" height="512.001" fill="white"/>
</clipPath>
</defs>
</svg>
